# xmcd
#
# Track frame offsets: 
#        182
#        11085
#        22572
#        40882
#        56992
#        75730
#        95485
#        111392
#        126050
#        149550
#        160227
#        192572
#        207005
#        220697
#        233422
#        246857
#        263277
#        290050
#        305780
#        319750
#        344215
#
# Disc length: 4725 seconds
#
# Revision: 2
# Processed by: cddbd v1.5.1PL0 Copyright (c) Steve Scherf et al.
# Submitted via: ExactAudioCopy v0.95a5
#
DISCID=36127315
DTITLE=David Allen Coe - Tattoo-Family Album
DYEAR=1977
DGENRE=Country
TTITLE0=Just To Prove My Love To You
TTITLE1=Face To Face
TTITLE2=You'll Always Live Inside Of Me
TTITLE3=Play Me A Sad Song
TTITLE4=Daddy Was A God Fearin' Man
TTITLE5=Canteen Of Water
TTITLE6=Maria Is A Mystery
TTITLE7=Just In Time (To Watch Love Die)
TTITLE8=San Francisco Mabel Joy
TTITLE9=Hey Gypsy
TTITLE10=Family Album
TTITLE11=Million Dollar Memories
TTITLE12=Divers Do It Deeper
TTITLE13=Guilty Footsteps
TTITLE14=Take This Job And Shove It
TTITLE15=Houston, Dallas, San Antone
TTITLE16=I've Got To Have You
TTITLE17=Whole Lot Of Lonesome
TTITLE18=Bad Impressions
TTITLE19=Heavenly Father, Holy Mother
TTITLE20=(If I Could Climb) The Walls Of The Bottle
EXTD=
EXTT0=
EXTT1=
EXTT2=
EXTT3=
EXTT4=
EXTT5=
EXTT6=
EXTT7=
EXTT8=
EXTT9=
EXTT10=
EXTT11=
EXTT12=
EXTT13=
EXTT14=
EXTT15=
EXTT16=
EXTT17=
EXTT18=
EXTT19=
EXTT20=
PLAYORDER=
